<?xml version="1.0" standalone="no"?>
<!DOCTYPE svg PUBLIC "-//W3C//DTD SVG 20010904//EN"
 "http://www.w3.org/TR/2001/REC-SVG-20010904/DTD/svg10.dtd">
<svg version="1.0" xmlns="http://www.w3.org/2000/svg"
 width="600.000000pt" height="591.000000pt" viewBox="0 0 600.000000 591.000000"
 preserveAspectRatio="xMidYMid meet">
<g transform="translate(0.000000,591.000000) scale(0.100000,-0.100000)"
fill="#000000" stroke="none">
<path d="M1130 3454 c-44 -9 -84 -27 -123 -57 -97 -76 -91 -242 12 -310 34
-23 60 -32 193 -71 58 -17 78 -36 78 -74 0 -28 -24 -44 -74 -49 -65 -8 -137
20 -181 68 l-36 40 -27 -33 c-15 -18 -37 -43 -50 -56 -26 -27 -20 -40 35 -86
65 -55 118 -71 233 -71 89 1 112 4 152 24 94 46 137 146 108 252 -20 71 -81
112 -224 152 -124 35 -150 64 -101 112 42 43 147 25 203 -35 18 -20 19 -19 70
30 47 45 51 53 40 69 -22 31 -71 67 -108 80 -39 13 -161 22 -200 15z m193 -36
c56 -23 97 -54 97 -73 0 -7 -17 -27 -37 -44 -36 -30 -37 -31 -57 -13 -12 10
-34 24 -51 31 -34 14 -148 24 -140 11 2 -4 -4 -10 -15 -13 -32 -8 -43 -52 -24
-93 9 -19 19 -32 22 -30 2 3 17 -1 33 -9 15 -8 39 -15 54 -15 14 0 25 -5 25
-11 0 -6 9 -8 20 -4 11 4 20 2 20 -4 0 -6 9 -11 21 -11 37 0 114 -59 133 -103
24 -55 15 -138 -18 -182 -28 -37 -101 -79 -123 -71 -9 4 -11 1 -7 -5 5 -8 -22
-10 -94 -7 -85 3 -106 7 -131 26 -17 12 -37 22 -46 22 -8 0 -15 3 -15 8 0 4
-10 12 -22 17 -41 19 -44 40 -12 77 17 19 37 32 45 30 27 -9 69 -44 64 -53 -4
-5 2 -6 11 -2 11 4 15 3 11 -4 -5 -7 1 -9 15 -5 12 3 19 1 15 -4 -3 -6 25 -11
68 -13 69 -2 77 0 100 23 14 14 31 26 38 27 9 0 9 2 0 6 -7 2 -13 16 -13 29 0
33 -38 66 -91 81 -24 6 -71 18 -104 27 -32 9 -63 23 -68 31 -4 8 -12 13 -17
10 -4 -3 -23 13 -40 36 -28 34 -33 48 -33 97 0 60 35 138 56 125 5 -3 7 -1 3
5 -8 13 2 20 69 49 68 30 168 31 238 1z"/>
<path d="M1031 3144 c0 -11 3 -14 6 -6 3 7 2 16 -1 19 -3 4 -6 -2 -5 -13z"/>
<path d="M945 2900 c-6 -9 11 -50 21 -50 2 0 0 9 -6 20 -6 11 -8 25 -5 30 3 6
4 10 1 10 -3 0 -8 -4 -11 -10z"/>
<path d="M2428 3445 c-154 -39 -259 -173 -261 -333 -2 -111 21 -177 86 -248
77 -85 134 -108 267 -108 86 -1 113 3 151 20 114 53 169 139 177 276 l5 88
-167 0 -166 0 0 -66 0 -65 85 3 c74 3 85 1 85 -14 0 -27 -48 -76 -87 -89 -49
-16 -133 -6 -176 22 -40 27 -82 89 -91 137 -8 44 10 119 37 159 64 94 220 110
304 31 l23 -22 56 56 56 56 -43 32 c-44 32 -97 59 -131 65 -65 13 -159 13
-210 0z m202 -16 c8 -2 17 -7 20 -10 3 -3 21 -10 40 -15 19 -5 35 -15 35 -21
0 -6 4 -15 9 -20 5 -5 6 -3 2 5 -4 6 -3 12 3 12 6 0 15 -9 22 -21 9 -17 7 -24
-10 -40 -11 -10 -24 -27 -30 -36 -9 -17 -13 -16 -59 9 -62 34 -139 53 -157 38
-8 -6 -29 -12 -48 -13 -19 -1 -33 -5 -30 -9 2 -5 -3 -8 -12 -8 -9 0 -14 -4
-10 -9 3 -5 -4 -12 -15 -16 -11 -3 -20 -13 -20 -22 0 -14 -2 -14 -19 1 -13 12
-21 14 -26 6 -3 -6 -1 -9 6 -8 6 2 14 -3 17 -11 2 -8 0 -11 -6 -7 -6 4 -8 -1
-5 -13 3 -10 0 -22 -6 -25 -13 -9 -15 -129 -2 -173 12 -42 76 -107 125 -127
78 -32 198 -9 226 43 5 11 17 27 26 35 10 11 11 16 3 16 -7 0 -9 3 -6 7 4 3 2
12 -4 20 -8 8 -35 13 -79 13 l-68 0 -3 44 -4 44 124 1 c69 1 129 5 134 8 6 4
7 1 2 -7 -6 -9 -4 -12 6 -8 10 4 14 -4 14 -31 0 -20 -4 -42 -9 -50 -6 -10 -6
-12 3 -7 8 6 10 -4 5 -36 -7 -45 -72 -142 -110 -162 -10 -6 -21 -14 -24 -17
-21 -27 -213 -47 -265 -27 -75 28 -115 50 -110 58 3 6 0 7 -8 4 -14 -5 -87 72
-87 92 0 5 5 2 10 -6 7 -12 9 -10 8 7 -1 11 -7 19 -14 16 -12 -4 -27 34 -28
74 -1 12 -4 25 -8 29 -12 11 -10 64 2 64 6 0 10 5 10 11 0 5 -5 7 -11 3 -8 -5
-8 -1 0 14 6 11 11 34 11 51 0 17 4 31 9 31 8 0 24 35 23 50 0 3 19 28 44 55
25 29 42 41 38 30 l-6 -20 13 20 c6 11 13 21 15 23 1 2 32 13 68 26 62 20 174
28 226 15z"/>
<path d="M4670 3451 c-19 -4 -56 -18 -82 -31 -145 -72 -217 -236 -178 -409 14
-64 64 -147 106 -179 16 -12 34 -26 41 -32 6 -5 39 -18 72 -30 114 -38 243
-22 338 44 205 141 184 489 -37 606 -64 33 -178 47 -260 31z m177 -22 c23 -6
40 -16 37 -21 -4 -6 2 -7 15 -3 14 4 23 2 27 -9 3 -9 12 -12 21 -9 11 4 14 2
9 -5 -4 -7 -1 -12 8 -12 21 0 85 -89 86 -117 0 -13 4 -23 8 -23 16 0 30 -74
26 -130 -7 -100 -11 -119 -24 -135 -7 -8 -9 -15 -6 -15 10 0 -52 -85 -78 -107
-20 -16 -50 -32 -116 -61 -31 -14 -161 -10 -219 7 -24 7 -61 23 -81 36 -48 30
-114 110 -104 126 5 8 3 9 -6 4 -10 -6 -12 -3 -8 13 4 12 2 22 -2 22 -4 0 -11
27 -15 60 -8 71 2 143 18 134 8 -5 7 -2 0 7 -16 16 -17 33 -1 23 6 -4 8 -3 5
3 -10 16 13 74 26 66 6 -3 7 -1 3 6 -9 14 57 82 106 108 73 40 189 54 265 32z"/>
<path d="M4676 3307 c-22 -10 -47 -28 -57 -40 -10 -12 -18 -18 -19 -14 0 4 -6
2 -14 -5 -7 -7 -11 -19 -8 -27 3 -8 1 -12 -5 -8 -11 7 -16 -28 -16 -113 0 -74
6 -109 17 -102 5 3 7 -2 3 -11 -4 -10 -2 -16 6 -14 7 1 11 -4 9 -11 -1 -8 2
-11 8 -7 5 3 10 -1 10 -10 0 -8 16 -23 35 -32 19 -9 33 -19 31 -22 -2 -3 27
-6 64 -6 37 0 66 4 63 8 -3 5 1 7 8 6 23 -4 65 18 87 45 11 14 25 26 32 26 6
0 10 6 8 12 -3 7 1 18 7 25 15 15 16 195 2 186 -5 -3 -8 0 -5 7 5 15 -62 84
-102 105 -45 23 -118 24 -164 2z m164 -26 c19 -10 49 -37 65 -60 27 -39 30
-50 30 -119 0 -65 -4 -83 -25 -114 -36 -53 -85 -78 -156 -78 -68 0 -107 20
-149 74 -40 52 -46 146 -15 210 49 102 149 137 250 87z"/>
<path d="M1619 3443 c0 -2 0 -33 -1 -70 l0 -68 58 1 59 0 -2 -205 -2 -205 -58
3 -58 2 0 -70 0 -71 203 0 202 0 0 70 0 70 -77 -1 c-43 -1 -68 -4 -55 -6 12
-2 22 -7 22 -11 0 -4 19 -7 42 -7 l43 0 3 -48 3 -48 -165 3 c-92 2 -166 -1
-166 -5 0 -4 -9 -3 -21 3 -16 9 -19 19 -17 53 l3 41 47 1 c76 2 76 -1 76 223
1 109 -3 203 -7 211 -5 8 -29 14 -57 15 -32 1 -49 5 -48 14 1 6 2 28 3 47 l1
35 176 0 176 0 -4 -47 -3 -48 -42 -1 c-73 -1 -73 -2 -72 -220 1 -107 5 -194
10 -194 5 0 9 90 9 199 l0 199 60 -5 61 -6 -3 72 -3 72 -198 2 c-108 1 -197 1
-198 0z"/>
<path d="M3018 3102 l-3 -342 85 0 85 0 0 112 0 113 105 5 c113 6 145 17 192
67 57 60 76 188 39 261 -26 51 -77 99 -118 113 -19 6 -112 12 -208 12 l-175 2
-2 -343z m375 307 c20 -5 37 -14 37 -19 0 -6 6 -10 14 -10 8 0 18 -5 22 -12 5
-7 3 -8 -6 -3 -9 5 -11 4 -6 -3 4 -7 13 -12 19 -12 7 0 20 -20 30 -45 23 -54
19 -135 -8 -197 -4 -10 -11 -15 -16 -12 -5 3 -6 -2 -3 -10 4 -10 -10 -24 -43
-43 -53 -31 -55 -32 -167 -38 -107 -5 -112 -12 -106 -131 4 -83 3 -94 -12 -98
-10 -2 -18 -1 -18 3 0 3 -20 5 -45 3 l-45 -4 0 321 0 321 158 0 c86 0 174 -5
195 -11z"/>
<path d="M3187 3308 c-27 -20 -34 -173 -9 -183 26 -10 151 -11 144 -1 -3 5 5
7 16 4 12 -4 20 -3 18 1 -3 4 4 15 15 24 29 25 26 100 -5 134 -20 21 -35 26
-92 30 -50 3 -74 1 -87 -9z m157 -29 c32 -25 36 -84 7 -120 -16 -20 -30 -24
-93 -27 l-74 -4 0 86 1 86 66 0 c52 0 72 -4 93 -21z"/>
<path d="M3710 3103 l0 -343 83 0 82 0 -3 120 -3 120 45 0 c44 0 45 -1 79 -57
19 -32 49 -86 67 -120 l32 -62 95 -3 c52 -2 97 -1 99 1 7 7 -18 31 -27 25 -5
-3 -7 1 -4 8 3 7 -22 59 -55 116 -60 103 -68 122 -51 122 16 0 86 80 98 112
39 108 -9 228 -110 277 -37 18 -65 21 -235 23 l-192 3 0 -342z m385 313 c26
-5 74 -37 71 -49 -1 -6 -1 -9 1 -4 18 31 73 -77 73 -143 0 -56 -36 -127 -78
-155 -17 -11 -35 -30 -41 -42 -9 -19 -6 -27 14 -47 14 -14 25 -32 25 -41 0 -8
5 -15 11 -15 6 0 8 -9 4 -20 -4 -13 -2 -19 4 -18 12 3 68 -88 60 -96 -4 -4
-77 -7 -120 -5 -17 0 -54 64 -52 87 0 7 -1 11 -5 8 -6 -7 -32 41 -32 61 0 8
-4 12 -8 9 -4 -3 -17 11 -27 31 -21 38 -55 58 -67 39 -6 -8 -10 -8 -16 1 -6 9
-13 9 -32 0 -27 -14 -27 -12 -29 -150 l-1 -88 -57 2 -58 2 3 316 c2 235 6 317
15 323 10 6 301 1 342 -6z"/>
<path d="M3886 3328 c3 -4 -1 -8 -9 -8 -22 0 -37 -128 -21 -187 6 -22 11 -23
101 -23 91 0 96 1 124 29 41 41 43 113 5 146 -51 44 -67 55 -79 55 -8 0 -7 -4
3 -10 11 -7 -4 -10 -48 -10 -35 0 -61 4 -58 8 3 5 -1 9 -9 9 -8 0 -12 -4 -9
-9z m180 -49 c43 -43 31 -133 -19 -143 -12 -3 -57 -7 -99 -8 l-78 -3 0 93 0
94 85 -3 c75 -4 87 -7 111 -30z"/>
<path d="M4167 3099 c7 -7 15 -10 18 -7 3 3 -2 9 -12 12 -14 6 -15 5 -6 -5z"/>
<path d="M3986 3017 c3 -10 9 -15 12 -12 3 3 0 11 -7 18 -10 9 -11 8 -5 -6z"/>
<path d="M1643 2830 c0 -25 2 -35 4 -22 2 12 2 32 0 45 -2 12 -4 2 -4 -23z"/>
<path d="M2923 2373 c13 -4 17 -15 17 -59 0 -60 -16 -77 -51 -55 -11 6 -19 7
-19 2 0 -6 6 -13 13 -18 45 -28 81 10 75 82 -2 33 1 46 12 49 8 2 -3 4 -25 4
-22 0 -32 -2 -22 -5z"/>
<path d="M3072 2368 c-24 -24 -13 -49 28 -65 27 -11 40 -22 38 -32 -4 -20 -44
-27 -64 -10 -8 6 -17 9 -20 6 -3 -3 5 -12 18 -21 37 -24 87 -7 88 30 0 15 -19
29 -55 41 -34 11 -39 30 -13 47 13 8 23 8 38 -2 27 -16 35 -15 20 3 -15 18
-61 20 -78 3z"/>
</g>
</svg>
